<svg width="324" height="324" viewBox="0 0 324 324" fill="none" xmlns="http://www.w3.org/2000/svg">
<g clip-path="url(#clip0)">
<path d="M107.44 31.5669C107.44 40.2541 100.445 47.2745 91.7888 47.2745C83.1326 47.2745 76.1372 40.2541 76.1372 31.5669C76.1372 22.8798 83.1326 15.8594 91.7888 15.8594C100.445 15.8594 107.44 22.8798 107.44 31.5669Z" fill="#203245"/>
<path d="M189.481 76.0127C189.481 83.3362 183.593 89.2455 176.296 89.2455C168.998 89.2455 163.06 83.3362 163.06 76.0127C163.06 68.6893 168.948 62.7295 176.296 62.7295C183.643 62.7295 189.481 68.6893 189.481 76.0127Z" fill="#203245"/>
<path d="M308.748 95.5083C308.748 104.195 301.752 111.216 293.096 111.216C284.44 111.216 277.445 104.195 277.445 95.5083C277.445 86.8212 284.44 79.8008 293.096 79.8008C301.752 79.8008 308.748 86.8717 308.748 95.5083Z" fill="#F7941E"/>
<path d="M105.987 290.513C105.987 299.2 98.9916 306.221 90.3354 306.221C81.6791 306.221 74.6837 299.2 74.6837 290.513C74.6837 281.826 81.6791 274.806 90.3354 274.806C98.9412 274.806 105.987 281.826 105.987 290.513Z" fill="#9AA3AB"/>
<path d="M217.208 302.635C217.208 311.322 210.212 318.343 201.556 318.343C192.9 318.343 185.904 311.322 185.904 302.635C185.904 293.948 192.9 286.928 201.556 286.928C210.212 286.928 217.208 293.948 217.208 302.635Z" fill="#9AA3AB"/>
<path d="M224.811 236.775C224.811 243.543 219.326 249.048 212.582 249.048C205.838 249.048 200.352 243.543 200.352 236.775C200.352 230.007 205.838 224.502 212.582 224.502C219.326 224.502 224.811 230.007 224.811 236.775Z" fill="#203245"/>
<path d="M86.7139 165.965C86.7139 174.652 79.7185 181.672 71.0623 181.672C62.4061 181.672 55.4106 174.652 55.4106 165.965C55.4106 157.278 62.4061 150.257 71.0623 150.257C79.7185 150.207 86.7139 157.278 86.7139 165.965Z" fill="#9AA3AB"/>
<path d="M46.5983 126.772C46.5983 132.327 42.1192 136.822 36.5833 136.822C31.0473 136.822 26.5682 132.327 26.5682 126.772C26.5682 121.216 31.0473 116.721 36.5833 116.721C42.1192 116.721 46.5983 121.216 46.5983 126.772Z" fill="#203245"/>
<path d="M117.459 95.5078C117.459 101.064 112.98 105.559 107.444 105.559C101.908 105.559 97.4293 101.064 97.4293 95.5078C97.4293 89.9521 101.908 85.457 107.444 85.457C112.98 85.5075 117.459 90.0026 117.459 95.5078Z" fill="#203245"/>
<path d="M188.979 247.381C188.979 252.937 184.5 257.432 178.964 257.432C173.428 257.432 168.949 252.937 168.949 247.381C168.949 241.825 173.428 237.33 178.964 237.33C184.5 237.33 188.979 241.825 188.979 247.381Z" fill="#F7941E"/>
<path d="M46.5983 202.582C46.5983 208.138 42.1192 212.633 36.5833 212.633C31.0473 212.633 26.5682 208.138 26.5682 202.582C26.5682 197.026 31.0473 192.531 36.5833 192.531C42.1192 192.531 46.5983 197.026 46.5983 202.582Z" fill="#203245"/>
<path d="M210.368 13.2832C210.368 18.839 205.889 23.334 200.353 23.334C194.817 23.334 190.338 18.839 190.338 13.2832C190.338 7.72751 194.817 3.23242 200.353 3.23242C205.889 3.23242 210.368 7.72751 210.368 13.2832Z" fill="#203245"/>
<path d="M127.476 260.866C127.476 266.422 122.997 270.917 117.461 270.917C111.925 270.917 107.446 266.422 107.446 260.866C107.446 255.311 111.925 250.815 117.461 250.815C122.997 250.815 127.476 255.311 127.476 260.866Z" fill="#203245"/>
<path d="M151.63 312.383C151.63 318.09 147 322.737 141.313 322.737C135.626 322.737 130.996 318.09 130.996 312.383C130.996 306.676 135.626 302.029 141.313 302.029C147 302.08 151.63 306.676 151.63 312.383Z" fill="#203245"/>
<path d="M147.3 10.0508C147.3 15.6065 142.821 20.1016 137.285 20.1016C131.749 20.1016 127.27 15.6065 127.27 10.0508C127.27 4.49508 131.749 0 137.285 0C142.771 0 147.3 4.49508 147.3 10.0508Z" fill="#203245"/>
<path d="M320.734 192.531C320.734 198.087 316.255 202.582 310.719 202.582C305.183 202.582 300.704 198.087 300.704 192.531C300.704 186.976 305.183 182.48 310.719 182.48C316.255 182.48 320.734 186.976 320.734 192.531Z" fill="#203245"/>
<path d="M245.598 206.37C245.598 211.926 241.119 216.421 235.583 216.421C230.047 216.421 225.568 211.926 225.568 206.37C225.568 200.814 230.047 196.319 235.583 196.319C241.119 196.319 245.598 200.865 245.598 206.37Z" fill="#203245"/>
<path d="M255.612 150.207C255.612 155.763 251.133 160.258 245.597 160.258C240.061 160.258 235.582 155.763 235.582 150.207C235.582 144.651 240.061 140.156 245.597 140.156C251.133 140.207 255.612 144.702 255.612 150.207Z" fill="#203245"/>
<path d="M247.152 69.7998C247.152 75.3555 242.673 79.8506 237.137 79.8506C231.601 79.8506 227.122 75.3555 227.122 69.7998C227.122 64.2441 231.601 59.749 237.137 59.749C242.673 59.749 247.152 64.2441 247.152 69.7998Z" fill="#F7941E"/>
<path d="M257.165 286.928C257.165 292.483 252.686 296.979 247.15 296.979C241.614 296.979 237.135 292.483 237.135 286.928C237.135 281.372 241.614 276.877 247.15 276.877C252.686 276.877 257.165 281.372 257.165 286.928Z" fill="#203245"/>
<path d="M271.711 45.9112C271.711 51.4669 267.232 55.962 261.696 55.962C256.16 55.962 251.681 51.4669 251.681 45.9112C251.681 40.3554 256.16 35.8604 261.696 35.8604C267.232 35.8604 271.711 40.3554 271.711 45.9112Z" fill="#203245"/>
<path d="M50.3734 252.583C50.3734 258.139 45.8944 262.634 40.3584 262.634C34.8225 262.634 30.3434 258.139 30.3434 252.583C30.3434 247.027 34.8225 242.532 40.3584 242.532C45.8944 242.532 50.3734 247.027 50.3734 252.583Z" fill="#203245"/>
<path d="M83.9951 72.629C83.9951 76.5685 80.7742 79.8009 76.8487 79.8009C72.9232 79.8009 69.7023 76.5685 69.7023 72.629C69.7023 68.6894 72.9232 65.457 76.8487 65.457C80.7742 65.457 83.9951 68.6894 83.9951 72.629Z" fill="#9AA3AB"/>
<path d="M97.4799 125.609C97.4799 129.549 94.259 132.781 90.3335 132.781C86.4081 132.781 83.1871 129.549 83.1871 125.609C83.1871 121.67 86.4081 118.438 90.3335 118.438C94.259 118.438 97.4799 121.619 97.4799 125.609Z" fill="#9AA3AB"/>
<path d="M217.507 54.0421C217.507 57.9816 214.286 61.214 210.36 61.214C206.435 61.214 203.214 57.9816 203.214 54.0421C203.214 50.1025 206.435 46.8701 210.36 46.8701C214.286 46.8701 217.507 50.1025 217.507 54.0421Z" fill="#9AA3AB"/>
<path d="M234.268 21.5157C234.268 25.4552 231.047 28.6876 227.122 28.6876C223.196 28.6876 219.975 25.4552 219.975 21.5157C219.975 17.5762 223.196 14.3438 227.122 14.3438C231.098 14.3438 234.268 17.5762 234.268 21.5157Z" fill="#9AA3AB"/>
<path d="M324.001 153.994C324.001 157.934 320.78 161.166 316.855 161.166C312.929 161.166 309.708 157.934 309.708 153.994C309.708 150.055 312.929 146.822 316.855 146.822C320.78 146.822 324.001 150.055 324.001 153.994Z" fill="#9AA3AB"/>
<path d="M14.2928 141.166C14.2928 145.106 11.0719 148.338 7.14641 148.338C3.22092 148.338 0 145.106 0 141.166C0 137.227 3.22092 133.994 7.14641 133.994C11.1222 133.994 14.2928 137.176 14.2928 141.166Z" fill="#9AA3AB"/>
<path d="M123.002 231.674C123.002 236.018 119.479 239.603 115.101 239.603C110.722 239.603 107.25 236.068 107.25 231.674C107.25 227.33 110.773 223.795 115.101 223.795C119.429 223.795 123.002 227.33 123.002 231.674Z" fill="#9AA3AB"/>
<path d="M291.737 133.943C291.737 137.883 288.517 141.115 284.591 141.115C280.666 141.115 277.445 137.883 277.445 133.943C277.445 130.004 280.666 126.771 284.591 126.771C288.517 126.822 291.737 130.004 291.737 133.943Z" fill="#9AA3AB"/>
<path d="M85.3497 237.381C85.3497 241.32 82.1288 244.553 78.2033 244.553C74.2778 244.553 71.0569 241.32 71.0569 237.381C71.0569 233.441 74.2778 230.209 78.2033 230.209C82.1791 230.209 85.3497 233.441 85.3497 237.381Z" fill="#9AA3AB"/>
<path d="M97.4799 202.582C97.4799 206.522 94.259 209.754 90.3335 209.754C86.4081 209.754 83.1871 206.572 83.1871 202.582C83.1871 198.643 86.4081 195.41 90.3335 195.41C94.259 195.41 97.4799 198.643 97.4799 202.582Z" fill="#203245"/>
<path d="M176.241 7.17194C176.241 11.1114 173.02 14.3439 169.095 14.3439C165.169 14.3439 161.948 11.1114 161.948 7.17194C161.948 3.23242 165.169 0 169.095 0C173.071 0 176.241 3.23242 176.241 7.17194Z" fill="#9AA3AB"/>
<path d="M183.39 36.8702C183.39 40.8097 180.169 44.0421 176.244 44.0421C172.318 44.0421 169.097 40.8097 169.097 36.8702C169.097 32.9307 172.318 29.6982 176.244 29.6982C180.169 29.6982 183.39 32.8802 183.39 36.8702Z" fill="#9AA3AB"/>
<path d="M147.201 86.8209C147.201 89.4472 145.087 91.5685 142.47 91.5685C139.853 91.5685 137.74 89.4472 137.74 86.8209C137.74 84.1945 139.853 82.0732 142.47 82.0732C145.087 82.1237 147.201 84.245 147.201 86.8209Z" fill="#9AA3AB"/>
<path d="M69.6459 105.559C69.6459 108.185 67.5322 110.307 64.9152 110.307C62.2982 110.307 60.1844 108.185 60.1844 105.559C60.1844 102.933 62.2982 100.812 64.9152 100.812C67.5322 100.812 69.6459 102.933 69.6459 105.559Z" fill="#9AA3AB"/>
<path d="M40.2062 158.742C40.2062 161.368 38.0925 163.489 35.4755 163.489C32.8585 163.489 30.7448 161.368 30.7448 158.742C30.7448 156.115 32.8585 153.994 35.4755 153.994C38.0925 153.994 40.2062 156.115 40.2062 158.742Z" fill="#9AA3AB"/>
<path d="M243.531 182.48C243.531 185.106 241.417 187.228 238.8 187.228C236.183 187.228 234.069 185.106 234.069 182.48C234.069 179.854 236.183 177.732 238.8 177.732C241.417 177.783 243.531 179.904 243.531 182.48Z" fill="#9AA3AB"/>
<path d="M58.7753 276.878C58.7753 279.504 56.6615 281.625 54.0446 281.625C51.4276 281.625 49.3138 279.504 49.3138 276.878C49.3138 274.251 51.4276 272.13 54.0446 272.13C56.6615 272.13 58.7753 274.251 58.7753 276.878Z" fill="#9AA3AB"/>
<path d="M319.118 118.438C319.118 121.064 317.004 123.186 314.387 123.186C311.77 123.186 309.657 121.064 309.657 118.438C309.657 115.812 311.77 113.69 314.387 113.69C317.004 113.69 319.118 115.812 319.118 118.438Z" fill="#203245"/>
<path d="M290.681 64.0933C290.681 66.7197 288.567 68.8409 285.95 68.8409C283.333 68.8409 281.22 66.7197 281.22 64.0933C281.22 61.467 283.333 59.3457 285.95 59.3457C288.567 59.3457 290.681 61.467 290.681 64.0933Z" fill="#9AA3AB"/>
<path d="M17.9668 105.559C17.9668 108.185 15.8531 110.307 13.2361 110.307C10.6191 110.307 8.50537 108.185 8.50537 105.559C8.50537 102.933 10.6191 100.812 13.2361 100.812C15.8531 100.812 17.9668 102.933 17.9668 105.559Z" fill="#203245"/>
<path d="M180.524 319.1C180.524 321.777 178.36 323.999 175.642 323.999C172.975 323.999 170.76 321.828 170.76 319.1C170.76 316.423 172.924 314.201 175.642 314.201C178.309 314.201 180.524 316.373 180.524 319.1Z" fill="#9AA3AB"/>
<path d="M312.13 224.502C312.13 227.128 310.016 229.249 307.399 229.249C304.782 229.249 302.668 227.128 302.668 224.502C302.668 221.875 304.782 219.754 307.399 219.754C310.016 219.754 312.13 221.875 312.13 224.502Z" fill="#9AA3AB"/>
<path d="M24.2534 230.966C24.2534 233.593 22.1397 235.714 19.5227 235.714C16.9057 235.714 14.792 233.593 14.792 230.966C14.792 228.34 16.9057 226.219 19.5227 226.219C22.1397 226.219 24.2534 228.34 24.2534 230.966Z" fill="#203245"/>
<path d="M164.971 290.514C164.971 294.453 161.75 297.686 157.825 297.686C153.899 297.686 150.678 294.453 150.678 290.514C150.678 286.574 153.899 283.342 157.825 283.342C161.75 283.342 164.971 286.574 164.971 290.514Z" fill="#9AA3AB"/>
<path d="M238.797 262.635C238.797 266.574 235.576 269.807 231.65 269.807C227.725 269.807 224.504 266.574 224.504 262.635C224.504 258.695 227.725 255.463 231.65 255.463C235.626 255.463 238.797 258.695 238.797 262.635Z" fill="#9AA3AB"/>
<path d="M157.825 245.411C157.825 249.351 154.604 252.583 150.678 252.583C146.753 252.583 143.532 249.351 143.532 245.411C143.532 241.472 146.753 238.239 150.678 238.239C154.604 238.239 157.825 241.472 157.825 245.411Z" fill="#9AA3AB"/>
<path d="M265.974 233.391C265.974 237.33 262.753 240.563 258.828 240.563C254.902 240.563 251.681 237.33 251.681 233.391C251.681 229.451 254.902 226.219 258.828 226.219C262.753 226.219 265.974 229.401 265.974 233.391Z" fill="#9AA3AB"/>
<path d="M156.565 45.9102C156.565 49.8497 153.344 53.0822 149.418 53.0822C145.493 53.0822 142.272 49.8497 142.272 45.9102C142.272 41.9707 145.493 38.7383 149.418 38.7383C153.394 38.7383 156.565 41.9707 156.565 45.9102Z" fill="#203245"/>
<path d="M128.885 56.9209C128.885 60.8605 125.664 64.0929 121.739 64.0929C117.813 64.0929 114.592 60.8605 114.592 56.9209C114.592 52.9814 117.813 49.749 121.739 49.749C125.664 49.749 128.885 52.9814 128.885 56.9209Z" fill="#F7941E"/>
<path d="M286.009 173.137C286.009 177.076 282.788 180.309 278.862 180.309C274.937 180.309 271.716 177.076 271.716 173.137C271.716 169.197 274.937 165.965 278.862 165.965C282.788 165.965 286.009 169.147 286.009 173.137Z" fill="#203245"/>
<path d="M258.827 103.033C258.827 106.973 255.606 110.205 251.681 110.205C247.755 110.205 244.534 106.973 244.534 103.033C244.534 99.0938 247.755 95.8613 251.681 95.8613C255.606 95.8613 258.827 99.0938 258.827 103.033Z" fill="#203245"/>
<path d="M227.121 105.559C227.121 109.498 223.901 112.731 219.975 112.731C216.05 112.731 212.829 109.498 212.829 105.559C212.829 101.619 216.05 98.3867 219.975 98.3867C223.951 98.3867 227.121 101.619 227.121 105.559Z" fill="#203245"/>
<path d="M61.1981 48.4864C61.1981 52.4259 57.9772 55.6583 54.0517 55.6583C50.1262 55.6583 46.9053 52.4764 46.9053 48.4864C46.9053 44.5469 50.1262 41.3145 54.0517 41.3145C57.9772 41.3145 61.1981 44.5469 61.1981 48.4864Z" fill="#203245"/>
<path d="M294.01 254.553C294.01 258.492 290.789 261.725 286.863 261.725C282.938 261.725 279.717 258.492 279.717 254.553C279.717 250.613 282.938 247.381 286.863 247.381C290.789 247.381 294.01 250.613 294.01 254.553Z" fill="#9AA3AB"/>
<path d="M15.6513 185.359C15.6513 189.299 12.4304 192.531 8.50493 192.531C4.57944 192.531 1.35852 189.349 1.35852 185.359C1.35852 181.42 4.57944 178.188 8.50493 178.188C12.4304 178.188 15.6513 181.42 15.6513 185.359Z" fill="#F7941E"/>
<path d="M286.009 212.633C286.009 216.572 282.788 219.805 278.862 219.805C274.937 219.805 271.716 216.572 271.716 212.633C271.716 208.693 274.937 205.461 278.862 205.461C282.788 205.461 286.009 208.693 286.009 212.633Z" fill="#F7941E"/>
<path d="M35.6324 82.1241C35.6324 86.0636 32.4115 89.296 28.486 89.296C24.5605 89.296 21.3396 86.0636 21.3396 82.1241C21.3396 78.1846 24.5605 74.9521 28.486 74.9521C32.4618 74.9521 35.6324 78.1341 35.6324 82.1241Z" fill="#9AA3AB"/>
<path d="M152.468 154.401C152.398 154.401 152.338 154.411 152.268 154.421C152.129 154.431 151.999 154.441 151.869 154.451C151.79 154.461 151.72 154.47 151.64 154.48C151.52 154.49 151.4 154.51 151.281 154.53C151.201 154.54 151.121 154.56 151.051 154.57C150.942 154.59 150.822 154.61 150.712 154.64C150.632 154.66 150.552 154.68 150.483 154.69C150.373 154.72 150.263 154.739 150.153 154.769C150.074 154.789 149.994 154.809 149.924 154.839C149.814 154.869 149.704 154.899 149.595 154.939C149.515 154.969 149.445 154.988 149.365 155.018C149.256 155.058 149.156 155.098 149.046 155.138C148.976 155.168 148.896 155.198 148.827 155.227C148.717 155.267 148.617 155.317 148.507 155.357C148.438 155.387 148.368 155.417 148.308 155.447C148.198 155.496 148.098 155.546 147.989 155.606C147.929 155.636 147.859 155.676 147.799 155.706C147.689 155.765 147.58 155.825 147.48 155.885C147.42 155.915 147.37 155.945 147.31 155.984C147.2 156.054 147.091 156.124 146.981 156.194C146.931 156.223 146.881 156.253 146.831 156.283C146.712 156.363 146.602 156.443 146.482 156.522C146.442 156.552 146.402 156.572 146.362 156.602C146.233 156.702 146.103 156.801 145.983 156.901C145.963 156.921 145.943 156.931 145.924 156.951C145.475 157.319 145.056 157.708 144.676 158.136C142.871 160.138 141.773 162.777 141.773 165.686V176.961H144.676V165.666C144.676 161.044 148.438 157.289 153.066 157.289C153.166 157.289 153.256 157.299 153.356 157.299C153.615 156.313 153.964 155.377 154.383 154.461C153.954 154.411 153.515 154.381 153.066 154.381C152.867 154.391 152.667 154.391 152.468 154.401Z" fill="#9AA3AB"/>
<path d="M194.976 147C186.676 147 179.952 153.713 179.952 162C179.952 170.287 186.676 177 194.976 177C203.276 177 210 170.287 210 162C210 153.723 203.276 147 194.976 147ZM194.976 149.898C201.66 149.898 207.097 155.327 207.097 162C207.097 168.673 201.66 174.102 194.976 174.102C188.292 174.102 182.855 168.673 182.855 162C182.855 155.327 188.292 149.898 194.976 149.898Z" fill="#203245"/>
<path d="M138.093 154.45H135.189V177H138.093V154.45Z" fill="#9AA3AB"/>
<path d="M179.253 170.596C177.058 172.757 174.055 174.102 170.733 174.102C164.049 174.102 158.612 168.673 158.612 162C158.612 155.327 164.049 149.898 170.733 149.898C174.055 149.898 177.058 151.243 179.253 153.404C179.732 152.538 180.28 151.721 180.889 150.944C178.215 148.494 174.654 147 170.733 147C162.433 147 155.709 153.713 155.709 162C155.709 170.287 162.433 177 170.733 177C174.644 177 178.215 175.506 180.889 173.056C180.28 172.289 179.732 171.462 179.253 170.596Z" fill="#203245"/>
<path d="M136.855 151.781H136.426C135.608 151.781 134.949 151.123 134.949 150.306V149.888C134.949 149.071 135.608 148.414 136.426 148.414H136.855C137.673 148.414 138.331 149.071 138.331 149.888V150.306C138.331 151.123 137.663 151.781 136.855 151.781Z" fill="#9AA3AB"/>
<path d="M130.78 172.039C129.303 173.324 127.378 174.101 125.273 174.101C120.654 174.101 116.893 170.346 116.893 165.735C116.893 161.123 120.654 157.368 125.273 157.368C127.378 157.368 129.303 158.145 130.78 159.43C131.219 158.553 131.748 157.727 132.356 156.96C130.421 155.406 127.957 154.47 125.283 154.47C119.048 154.47 114 159.51 114 165.735C114 171.96 119.048 177 125.283 177C127.967 177 130.421 176.063 132.356 174.51C131.758 173.743 131.219 172.916 130.78 172.039Z" fill="#9AA3AB"/>
</g>
<defs>
<clipPath id="clip0">
<rect width="324.001" height="324" fill="white"/>
</clipPath>
</defs>
</svg>
