<svg width="195" height="60" viewBox="0 0 195 60" fill="none" xmlns="http://www.w3.org/2000/svg">
<path d="M164.702 0.111328C147.959 0.111328 134.404 13.4268 134.404 29.8752C134.404 46.3237 147.959 59.6391 164.702 59.6391C181.446 59.6391 195 46.3237 195 29.8752C195 13.4268 181.446 0.111328 164.702 0.111328ZM164.702 5.81794C178.257 5.81794 189.191 16.5598 189.191 29.8752C189.191 43.1906 178.257 53.9325 164.702 53.9325C151.262 53.9325 140.213 43.1906 140.213 29.8752C140.213 16.5598 151.148 5.81794 164.702 5.81794Z" fill="white"/>
<path d="M132.924 46.9956C128.481 51.2476 122.445 53.933 115.724 53.933C102.284 53.933 91.2355 43.1912 91.2355 29.8758C91.2355 16.5604 102.17 5.8185 115.724 5.8185C122.445 5.8185 128.481 8.50396 132.924 12.7559C133.835 11.0775 134.974 9.39912 136.227 7.8326C130.873 3.02115 123.584 0 115.724 0C98.9808 0 85.4265 13.3154 85.4265 29.7639C85.4265 46.2123 98.9808 59.5278 115.724 59.5278C123.584 59.5278 130.873 56.5066 136.227 51.6952C134.974 50.3524 133.835 48.674 132.924 46.9956Z" fill="white"/>
<path d="M47.2689 9.62333H46.3577C44.7631 9.62333 43.3962 8.2806 43.3962 6.71408V5.81893C43.3962 4.25241 44.7631 2.90967 46.3577 2.90967H47.2689C48.8635 2.90967 50.2304 4.25241 50.2304 5.81893V6.71408C50.2304 8.2806 48.8635 9.62333 47.2689 9.62333Z" fill="white"/>
<path d="M78.8199 14.7705C78.706 14.7705 78.5922 14.7705 78.4783 14.7705C78.2505 14.7705 77.9087 14.7705 77.6809 14.8824C77.567 14.8824 77.3392 14.8824 77.2253 14.9943C76.9975 14.9943 76.7697 15.1062 76.5419 15.1062C76.428 15.1062 76.2002 15.2181 76.0863 15.2181C75.8585 15.2181 75.6307 15.33 75.4029 15.33C75.289 15.33 75.0612 15.4419 74.9473 15.4419C74.7195 15.4419 74.4917 15.5538 74.2639 15.5538C74.15 15.5538 73.9222 15.6657 73.8083 15.6657C73.5805 15.7776 73.3527 15.7776 73.1249 15.8895C73.011 15.8895 72.7832 16.0014 72.6693 16.0014C72.4415 16.1132 72.2136 16.1132 71.9858 16.2251C71.8719 16.2251 71.6441 16.337 71.5302 16.4489C71.3024 16.5608 71.0746 16.6727 70.8468 16.6727C70.7329 16.7846 70.619 16.7846 70.3912 16.8965C70.1634 17.0084 69.9356 17.1203 69.7078 17.2322C69.5939 17.3441 69.48 17.3441 69.3661 17.456C69.1383 17.5679 68.9105 17.6798 68.6827 17.7917C68.5688 17.9035 68.4549 17.9035 68.341 18.0154C68.1132 18.1273 67.8854 18.2392 67.6576 18.463C67.5437 18.5749 67.4298 18.5749 67.3159 18.6868C67.0881 18.7987 66.8602 19.0225 66.6324 19.1344C66.5185 19.1344 66.5186 19.2463 66.4047 19.2463C66.1769 19.4701 65.8351 19.582 65.6073 19.8058L65.4934 19.9177C64.5822 20.589 63.7849 21.4842 62.9876 22.2674C59.3427 26.2956 57.0647 31.4428 57.0647 37.2613V59.6401H62.9876V37.2613C62.9876 28.0859 70.619 20.589 79.959 20.589C80.1868 20.589 80.3007 20.589 80.5285 20.589C81.098 18.6868 81.7814 16.7846 82.5787 14.9943C81.6675 14.8824 80.8702 14.8824 79.959 14.8824C79.6173 14.7705 79.1617 14.7705 78.8199 14.7705Z" fill="white"/>
<path d="M49.6613 14.8818H43.8523V59.7514H49.6613V14.8818Z" fill="white"/>
<path d="M33.8288 49.7929C30.8674 52.3664 26.9947 53.9329 22.6665 53.9329C13.3265 53.9329 5.69509 46.436 5.69509 37.2607C5.69509 28.0854 13.3265 20.5884 22.6665 20.5884C26.8808 20.5884 30.7535 22.155 33.8288 24.7285C34.7401 22.9382 35.7652 21.3717 37.0181 19.8052C33.1454 16.6721 28.1337 14.8818 22.7804 14.8818C10.1373 14.8818 0 24.9523 0 37.2607C0 49.5691 10.2512 59.6395 22.7804 59.6395C28.2477 59.6395 33.1454 57.7373 37.0181 54.7162C35.7652 53.2616 34.7401 51.5832 33.8288 49.7929Z" fill="white"/>
</svg>
